<?xml version="1.0" encoding="UTF-8" standalone="no"?><!DOCTYPE svg PUBLIC "-//W3C//DTD SVG 1.1//EN" "http://www.w3.org/Graphics/SVG/1.1/DTD/svg11.dtd"><svg width="100%" height="100%" viewBox="0 0 500 430" version="1.1" xmlns="http://www.w3.org/2000/svg" xmlns:xlink="http://www.w3.org/1999/xlink" xml:space="preserve" xmlns:serif="http://www.serif.com/" style="fill-rule:evenodd;clip-rule:evenodd;stroke-linejoin:round;stroke-miterlimit:1.41421;"><rect id="Artboard2" x="0" y="0" width="500" height="430" style="fill:none;"/><g><path d="M84.188,334.213l-18.688,0l0,14l21.844,0l0,6.312l-29.75,0l0,-45.5l29.531,0l0,6.375l-21.625,0l0,12.563l18.688,0l0,6.25Z" style="fill:#18273d;fill-rule:nonzero;"/><path d="M130.094,332.963c0,3.458 -0.453,6.557 -1.36,9.296c-0.906,2.74 -2.182,5.063 -3.828,6.969c-1.646,1.906 -3.625,3.37 -5.937,4.391c-2.313,1.021 -4.875,1.531 -7.688,1.531c-2.791,0 -5.343,-0.51 -7.656,-1.531c-2.312,-1.021 -4.307,-2.485 -5.984,-4.391c-1.677,-1.906 -2.98,-4.229 -3.907,-6.969c-0.927,-2.739 -1.39,-5.838 -1.39,-9.296l0,-2.313c0,-3.458 0.463,-6.562 1.39,-9.312c0.927,-2.75 2.219,-5.084 3.875,-7c1.657,-1.917 3.641,-3.386 5.954,-4.407c2.312,-1.02 4.864,-1.531 7.656,-1.531c2.812,0 5.38,0.511 7.703,1.531c2.323,1.021 4.312,2.49 5.969,4.407c1.656,1.916 2.937,4.25 3.843,7c0.907,2.75 1.36,5.854 1.36,9.312l0,2.313Zm-7.906,-2.375c0,-2.542 -0.245,-4.787 -0.735,-6.735c-0.489,-1.948 -1.203,-3.578 -2.14,-4.89c-0.938,-1.313 -2.089,-2.308 -3.454,-2.985c-1.364,-0.677 -2.911,-1.015 -4.64,-1.015c-1.688,0 -3.209,0.338 -4.563,1.015c-1.354,0.677 -2.505,1.672 -3.453,2.985c-0.948,1.312 -1.677,2.942 -2.187,4.89c-0.511,1.948 -0.766,4.193 -0.766,6.735l0,2.375c0,2.541 0.255,4.791 0.766,6.75c0.51,1.958 1.244,3.599 2.203,4.921c0.958,1.323 2.12,2.323 3.484,3c1.365,0.678 2.891,1.016 4.578,1.016c3.5,0 6.193,-1.333 8.078,-4c1.886,-2.667 2.829,-6.562 2.829,-11.687l0,-2.375Z" style="fill:#18273d;fill-rule:nonzero;"/><path d="M161.75,342.806c0,-0.916 -0.135,-1.734 -0.406,-2.453c-0.271,-0.719 -0.766,-1.38 -1.485,-1.984c-0.718,-0.604 -1.708,-1.182 -2.968,-1.735c-1.261,-0.552 -2.881,-1.13 -4.86,-1.734c-2.166,-0.646 -4.166,-1.385 -6,-2.219c-1.833,-0.833 -3.411,-1.802 -4.734,-2.906c-1.323,-1.104 -2.359,-2.375 -3.109,-3.812c-0.75,-1.438 -1.125,-3.084 -1.125,-4.938c0,-1.833 0.39,-3.521 1.171,-5.062c0.782,-1.542 1.881,-2.875 3.297,-4c1.417,-1.125 3.115,-2 5.094,-2.625c1.979,-0.625 4.167,-0.938 6.563,-0.938c2.562,0 4.864,0.37 6.906,1.109c2.041,0.74 3.765,1.745 5.172,3.016c1.406,1.271 2.484,2.745 3.234,4.422c0.75,1.677 1.125,3.464 1.125,5.359l-7.875,0c0,-1.104 -0.172,-2.119 -0.516,-3.047c-0.343,-0.927 -0.869,-1.729 -1.578,-2.406c-0.708,-0.677 -1.604,-1.203 -2.687,-1.578c-1.084,-0.375 -2.365,-0.562 -3.844,-0.562c-1.396,0 -2.604,0.156 -3.625,0.468c-1.021,0.313 -1.87,0.75 -2.547,1.313c-0.677,0.562 -1.177,1.229 -1.5,2c-0.323,0.771 -0.484,1.604 -0.484,2.5c0,1.687 0.797,3.094 2.39,4.219c1.594,1.125 4.026,2.166 7.297,3.125c2.563,0.75 4.782,1.583 6.657,2.5c1.875,0.916 3.432,1.953 4.671,3.109c1.24,1.156 2.162,2.458 2.766,3.906c0.604,1.448 0.906,3.078 0.906,4.891c0,1.917 -0.38,3.64 -1.14,5.172c-0.761,1.531 -1.844,2.833 -3.25,3.906c-1.407,1.073 -3.11,1.896 -5.11,2.469c-2,0.573 -4.229,0.859 -6.687,0.859c-2.188,0 -4.344,-0.297 -6.469,-0.891c-2.125,-0.593 -4.031,-1.489 -5.719,-2.687c-1.687,-1.198 -3.047,-2.693 -4.078,-4.484c-1.031,-1.792 -1.547,-3.896 -1.547,-6.313l7.907,0c0,1.438 0.255,2.672 0.765,3.703c0.511,1.031 1.208,1.875 2.094,2.531c0.885,0.657 1.932,1.136 3.141,1.438c1.208,0.302 2.51,0.453 3.906,0.453c2.75,0 4.817,-0.557 6.203,-1.672c1.385,-1.114 2.078,-2.588 2.078,-4.422Z" style="fill:#18273d;fill-rule:nonzero;"/><path d="M227.406,348.619c-0.479,0.625 -1.146,1.318 -2,2.078c-0.854,0.76 -1.953,1.469 -3.297,2.125c-1.343,0.656 -2.958,1.208 -4.843,1.656c-1.886,0.448 -4.099,0.672 -6.641,0.672c-2.854,0 -5.474,-0.489 -7.859,-1.469c-2.386,-0.979 -4.433,-2.395 -6.141,-4.25c-1.708,-1.854 -3.036,-4.135 -3.984,-6.843c-0.948,-2.709 -1.422,-5.802 -1.422,-9.282l0,-3c0,-3.458 0.427,-6.547 1.281,-9.265c0.854,-2.719 2.083,-5.016 3.688,-6.891c1.604,-1.875 3.562,-3.302 5.875,-4.281c2.312,-0.979 4.937,-1.469 7.875,-1.469c2.77,0 5.187,0.359 7.25,1.078c2.062,0.719 3.802,1.724 5.218,3.016c1.417,1.292 2.532,2.828 3.344,4.609c0.813,1.781 1.354,3.735 1.625,5.86l-7.75,0c-0.187,-1.188 -0.5,-2.282 -0.937,-3.282c-0.438,-1 -1.037,-1.864 -1.797,-2.593c-0.761,-0.73 -1.698,-1.302 -2.813,-1.719c-1.114,-0.417 -2.443,-0.625 -3.984,-0.625c-1.854,0 -3.464,0.344 -4.828,1.031c-1.365,0.688 -2.5,1.693 -3.407,3.016c-0.906,1.323 -1.583,2.948 -2.031,4.875c-0.448,1.927 -0.672,4.12 -0.672,6.578l0,3.062c0,2.5 0.271,4.714 0.813,6.641c0.541,1.927 1.317,3.547 2.328,4.859c1.01,1.313 2.239,2.313 3.687,3c1.448,0.688 3.089,1.032 4.922,1.032c1.354,0 2.516,-0.089 3.485,-0.266c0.968,-0.177 1.786,-0.401 2.453,-0.672c0.666,-0.271 1.213,-0.568 1.64,-0.891c0.427,-0.322 0.776,-0.63 1.047,-0.921l0,-8.907l-9.375,0l0,-6l17.25,0l0,17.438Z" style="fill:#18273d;fill-rule:nonzero;"/><path d="M255.844,351.213c-1.063,1.25 -2.375,2.218 -3.938,2.906c-1.562,0.687 -3.416,1.031 -5.562,1.031c-1.667,0 -3.183,-0.234 -4.547,-0.703c-1.365,-0.469 -2.537,-1.208 -3.516,-2.219c-0.979,-1.01 -1.739,-2.312 -2.281,-3.906c-0.542,-1.594 -0.812,-3.505 -0.812,-5.734l0,-21.875l7.593,0l0,21.937c0,1.229 0.146,2.245 0.438,3.047c0.291,0.802 0.682,1.448 1.172,1.937c0.489,0.49 1.057,0.834 1.703,1.032c0.646,0.198 1.323,0.297 2.031,0.297c1.958,0 3.542,-0.355 4.75,-1.063c1.208,-0.708 2.115,-1.677 2.719,-2.906l0,-24.281l7.594,0l0,33.812l-7.157,0l-0.187,-3.312Z" style="fill:#18273d;fill-rule:nonzero;"/><path d="M291.125,354.525c-0.208,-0.396 -0.38,-0.864 -0.516,-1.406c-0.135,-0.542 -0.255,-1.125 -0.359,-1.75c-0.5,0.521 -1.057,1.01 -1.672,1.469c-0.614,0.458 -1.292,0.859 -2.031,1.203c-0.74,0.343 -1.542,0.614 -2.406,0.812c-0.865,0.198 -1.787,0.297 -2.766,0.297c-1.687,0 -3.24,-0.255 -4.656,-0.766c-1.417,-0.51 -2.63,-1.218 -3.641,-2.125c-1.01,-0.906 -1.802,-1.973 -2.375,-3.203c-0.573,-1.229 -0.859,-2.562 -0.859,-4c0,-1.812 0.344,-3.416 1.031,-4.812c0.688,-1.396 1.688,-2.563 3,-3.5c1.313,-0.938 2.922,-1.651 4.828,-2.141c1.906,-0.489 4.078,-0.734 6.516,-0.734l4.781,0l0,-2.219c0,-1.75 -0.49,-3.151 -1.469,-4.203c-0.979,-1.052 -2.468,-1.578 -4.468,-1.578c-0.896,0 -1.709,0.12 -2.438,0.359c-0.729,0.24 -1.349,0.563 -1.859,0.969c-0.511,0.406 -0.907,0.891 -1.188,1.453c-0.281,0.563 -0.422,1.167 -0.422,1.813l-7.593,0c0,-1.334 0.328,-2.62 0.984,-3.86c0.656,-1.239 1.588,-2.344 2.797,-3.312c1.208,-0.969 2.672,-1.745 4.39,-2.328c1.719,-0.584 3.641,-0.875 5.766,-0.875c1.896,0 3.646,0.244 5.25,0.734c1.604,0.49 2.99,1.219 4.156,2.187c1.167,0.969 2.073,2.178 2.719,3.625c0.646,1.448 0.969,3.141 0.969,5.079l0,15c0,3.041 0.427,5.468 1.281,7.281l0,0.531l-7.75,0Zm-8.344,-5.469c0.875,0 1.693,-0.114 2.453,-0.343c0.761,-0.23 1.448,-0.532 2.063,-0.907c0.614,-0.375 1.151,-0.807 1.609,-1.297c0.459,-0.489 0.823,-0.984 1.094,-1.484l0,-6.375l-4.094,0c-2.812,0 -4.927,0.49 -6.343,1.469c-1.417,0.979 -2.125,2.364 -2.125,4.156c0,0.688 0.114,1.323 0.343,1.906c0.229,0.584 0.573,1.089 1.032,1.516c0.458,0.427 1.015,0.76 1.671,1c0.657,0.24 1.422,0.359 2.297,0.359Z" style="fill:#18273d;fill-rule:nonzero;"/><path d="M323.25,327.65c-0.5,-0.083 -1.005,-0.146 -1.516,-0.187c-0.51,-0.042 -1.036,-0.063 -1.578,-0.063c-1.833,0 -3.323,0.354 -4.468,1.063c-1.146,0.708 -2,1.687 -2.563,2.937l0,23.125l-7.594,0l0,-33.812l7.25,0l0.188,3.781c0.854,-1.375 1.911,-2.453 3.172,-3.235c1.26,-0.781 2.744,-1.171 4.453,-1.171c0.437,0 0.932,0.046 1.484,0.14c0.552,0.094 0.953,0.193 1.203,0.297l-0.031,7.125Z" style="fill:#18273d;fill-rule:nonzero;"/><path d="M326.031,337.369c0,-2.563 0.308,-4.906 0.922,-7.031c0.615,-2.125 1.5,-3.948 2.656,-5.469c1.157,-1.521 2.558,-2.698 4.203,-3.531c1.646,-0.834 3.501,-1.25 5.563,-1.25c1.875,0 3.526,0.323 4.953,0.968c1.427,0.646 2.672,1.573 3.735,2.782l0,-17.313l7.593,0l0,48l-6.875,0l-0.375,-3.5c-1.083,1.313 -2.37,2.328 -3.859,3.047c-1.49,0.719 -3.234,1.078 -5.235,1.078c-2.041,0 -3.88,-0.432 -5.515,-1.297c-1.636,-0.864 -3.026,-2.057 -4.172,-3.578c-1.146,-1.521 -2.031,-3.328 -2.656,-5.422c-0.625,-2.094 -0.938,-4.37 -0.938,-6.828l0,-0.656Zm7.594,0.656c0,1.5 0.141,2.912 0.422,4.234c0.281,1.323 0.729,2.485 1.344,3.485c0.614,1 1.401,1.786 2.359,2.359c0.958,0.573 2.125,0.86 3.5,0.86c1.708,0 3.109,-0.381 4.203,-1.141c1.094,-0.76 1.964,-1.766 2.61,-3.016l0,-14.437c-0.646,-1.25 -1.521,-2.24 -2.625,-2.969c-1.105,-0.729 -2.48,-1.094 -4.125,-1.094c-1.375,0 -2.547,0.292 -3.516,0.875c-0.969,0.584 -1.761,1.375 -2.375,2.375c-0.615,1 -1.068,2.172 -1.359,3.516c-0.292,1.344 -0.438,2.776 -0.438,4.297l0,0.656Z" style="fill:#18273d;fill-rule:nonzero;"/><path d="M371.656,354.525l-7.593,0l0,-33.812l7.593,0l0,33.812Zm-8.062,-42.594c0,-1.166 0.37,-2.135 1.109,-2.906c0.74,-0.771 1.797,-1.156 3.172,-1.156c1.375,0 2.438,0.385 3.188,1.156c0.75,0.771 1.125,1.74 1.125,2.906c0,1.146 -0.375,2.099 -1.125,2.86c-0.75,0.76 -1.813,1.14 -3.188,1.14c-1.375,0 -2.432,-0.38 -3.172,-1.14c-0.739,-0.761 -1.109,-1.714 -1.109,-2.86Z" style="fill:#18273d;fill-rule:nonzero;"/><path d="M400.125,354.525c-0.208,-0.396 -0.38,-0.864 -0.516,-1.406c-0.135,-0.542 -0.255,-1.125 -0.359,-1.75c-0.5,0.521 -1.057,1.01 -1.672,1.469c-0.614,0.458 -1.292,0.859 -2.031,1.203c-0.74,0.343 -1.542,0.614 -2.406,0.812c-0.865,0.198 -1.787,0.297 -2.766,0.297c-1.687,0 -3.24,-0.255 -4.656,-0.766c-1.417,-0.51 -2.63,-1.218 -3.641,-2.125c-1.01,-0.906 -1.802,-1.973 -2.375,-3.203c-0.573,-1.229 -0.859,-2.562 -0.859,-4c0,-1.812 0.344,-3.416 1.031,-4.812c0.688,-1.396 1.688,-2.563 3,-3.5c1.313,-0.938 2.922,-1.651 4.828,-2.141c1.906,-0.489 4.078,-0.734 6.516,-0.734l4.781,0l0,-2.219c0,-1.75 -0.49,-3.151 -1.469,-4.203c-0.979,-1.052 -2.468,-1.578 -4.468,-1.578c-0.896,0 -1.709,0.12 -2.438,0.359c-0.729,0.24 -1.349,0.563 -1.859,0.969c-0.511,0.406 -0.907,0.891 -1.188,1.453c-0.281,0.563 -0.422,1.167 -0.422,1.813l-7.593,0c0,-1.334 0.328,-2.62 0.984,-3.86c0.656,-1.239 1.588,-2.344 2.797,-3.312c1.208,-0.969 2.672,-1.745 4.39,-2.328c1.719,-0.584 3.641,-0.875 5.766,-0.875c1.896,0 3.646,0.244 5.25,0.734c1.604,0.49 2.99,1.219 4.156,2.187c1.167,0.969 2.073,2.178 2.719,3.625c0.646,1.448 0.969,3.141 0.969,5.079l0,15c0,3.041 0.427,5.468 1.281,7.281l0,0.531l-7.75,0Zm-8.344,-5.469c0.875,0 1.693,-0.114 2.453,-0.343c0.761,-0.23 1.448,-0.532 2.063,-0.907c0.614,-0.375 1.151,-0.807 1.609,-1.297c0.459,-0.489 0.823,-0.984 1.094,-1.484l0,-6.375l-4.094,0c-2.812,0 -4.927,0.49 -6.343,1.469c-1.417,0.979 -2.125,2.364 -2.125,4.156c0,0.688 0.114,1.323 0.343,1.906c0.229,0.584 0.573,1.089 1.032,1.516c0.458,0.427 1.015,0.76 1.671,1c0.657,0.24 1.422,0.359 2.297,0.359Z" style="fill:#18273d;fill-rule:nonzero;"/><path d="M421.594,320.713l0.219,3.906c1.187,-1.438 2.614,-2.552 4.281,-3.344c1.666,-0.792 3.521,-1.187 5.562,-1.187c1.625,0 3.099,0.224 4.422,0.671c1.323,0.448 2.453,1.172 3.391,2.172c0.937,1 1.661,2.302 2.172,3.907c0.51,1.604 0.765,3.552 0.765,5.843l0,21.844l-7.594,0l0,-21.906c0,-1.167 -0.13,-2.151 -0.39,-2.953c-0.261,-0.802 -0.641,-1.453 -1.141,-1.953c-0.5,-0.5 -1.12,-0.86 -1.859,-1.079c-0.74,-0.218 -1.589,-0.328 -2.547,-0.328c-1.562,0 -2.922,0.375 -4.078,1.125c-1.156,0.75 -2.078,1.761 -2.766,3.032l0,24.062l-7.593,0l0,-33.812l7.156,0Z" style="fill:#18273d;fill-rule:nonzero;"/></g><g><path d="M341.125,120.373c0,-25.125 -20.398,-45.523 -45.523,-45.523l-91.047,0c-25.125,0 -45.524,20.398 -45.524,45.523l0,91.047c0,25.125 20.399,45.524 45.524,45.524l91.047,0c25.125,0 45.523,-20.399 45.523,-45.524l0,-91.047Z" style="fill:url(#_Linear1);"/><path d="M203.893,129.351l42.571,24.096l0,71.486l-32.932,-46.586l-9.639,-48.996Zm92.37,0l-42.57,24.096l0,71.486l32.931,-46.586l9.639,-48.996Zm-45.61,-22.49l-45.153,15.261l45.153,24.899l45.61,-24.899l-45.61,-15.261Z" style="fill:#fff;"/></g><defs><linearGradient id="_Linear1" x1="0" y1="0" x2="1" y2="0" gradientUnits="userSpaceOnUse" gradientTransform="matrix(-182.094,-181.568,181.568,-182.094,341.125,256.418)"><stop offset="0" style="stop-color:#049ecc;stop-opacity:1"/><stop offset="1" style="stop-color:#00c0aa;stop-opacity:1"/></linearGradient></defs></svg>